<svg xmlns="http://www.w3.org/2000/svg" version="1.1" xmlns:xlink="http://www.w3.org/1999/xlink" xmlns:svgjs="http://svgjs.dev/svgjs" width="128" height="128" viewBox="0 0 128 128"><g transform="matrix(0.8046875,0,0,0.8046875,12.21813465756302,6.756153330592099)"><svg viewBox="0 0 85 95" data-background-color="#ffffff" preserveAspectRatio="xMidYMid meet" height="143" width="128" xmlns="http://www.w3.org/2000/svg" xmlns:xlink="http://www.w3.org/1999/xlink"><g id="tight-bounds" transform="matrix(1,0,0,1,0.2326073214285742,-0.24049999999999727)"><svg viewBox="0 0 84.53478535714285 95.481" height="95.481" width="84.53478535714285"><g><svg viewBox="0 0 84.53478535714285 95.481" height="95.481" width="84.53478535714285"><g><svg viewBox="0 0 84.53478535714285 95.481" height="95.481" width="84.53478535714285"><g><svg viewBox="0 0 84.53478535714285 95.481" height="95.481" width="84.53478535714285"><g><svg viewBox="0 0 84.53478535714285 95.481" height="95.481" width="84.53478535714285"><g><svg viewBox="0 0 84.53478535714285 95.481" height="95.481" width="84.53478535714285"><g><svg xmlns="http://www.w3.org/2000/svg" data-name="Glyph Icon" viewBox="7.21 4 49.58 56" x="0" y="0" height="95.481" width="84.53478535714285" class="icon-icon-0" data-fill-palette-color="accent" id="icon-0"><path d="M49.13 20.84l-16-9.26V4L55.7 17.05ZM32 50.52L16 41.26V22.74l16-9.26 16 9.26V41.26ZM30.91 11.58l-16 9.26L8.3 17.05 30.91 4ZM13.77 22.74V41.26L7.21 45.05V19Zm1.1 20.42l16 9.26V60L8.3 47Zm18.22 9.26l16-9.26L55.7 47 33.09 60ZM50.23 41.26V22.74L56.79 19v26.1Z" fill="#1c4b82" data-fill-palette-color="accent"></path></svg></g></svg></g></svg></g></svg></g></svg></g></svg></g><defs></defs></svg><rect width="84.53478535714285" height="95.481" fill="none" stroke="none" visibility="hidden"></rect></g></svg></g></svg>
