<svg xmlns="http://www.w3.org/2000/svg" version="1.1" xmlns:xlink="http://www.w3.org/1999/xlink" xmlns:svgjs="http://svgjs.dev/svgjs" width="2000" height="611" viewBox="0 0 2000 611"><g transform="matrix(1,0,0,1,-1.2120943810770086,-0.38637646853345586)"><svg viewBox="0 0 396 121" data-background-color="#ffffff" preserveAspectRatio="xMidYMid meet" height="611" width="2000" xmlns="http://www.w3.org/2000/svg" xmlns:xlink="http://www.w3.org/1999/xlink"><g id="tight-bounds" transform="matrix(1,0,0,1,0.23999476977371614,0.07651645285196196)"><svg viewBox="0 0 395.52 120.84696709429609" height="120.84696709429609" width="395.52"><g><svg viewBox="0 0 563.4696303885336 172.1622064173703" height="120.84696709429609" width="395.52"><g transform="matrix(1,0,0,1,167.94963038853362,53.20062069963811)"><svg viewBox="0 0 395.52 65.76096501809408" height="65.76096501809408" width="395.52"><g id="textblocktransform"><svg viewBox="0 0 395.52 65.76096501809408" height="65.76096501809408" width="395.52" id="textblock"><g><svg viewBox="0 0 395.52 65.76096501809408" height="65.76096501809408" width="395.52"><g transform="matrix(1,0,0,1,0,0)"><svg width="395.52" viewBox="-0.9300000667572021 -35.790000915527344 242.84999084472656 40.380001068115234" height="65.76096501809408" data-palette-color="#1c4b82"><path d="M19.87-34.96L31.1-34.23 22.17-0.24 10.06 0.44-0.93-33.89 10.64-34.96 15.33-14.94 19.87-34.96ZM32.08-33.69L45.07-34.38 42.38-1.12 32.08-0.59 32.08-33.69ZM68.43-34.62L79.95-35.01 78.19-1.9 65.4-0.73 58.56-18.46 57.49-0.39 46.5-0.39 47.38-35.01 59.59-35.6 68.04-18.02 68.43-34.62ZM124.5-18.16L124.5-18.16Q124.5-14.45 123.12-11.08 121.74-7.71 118.98-5.18L118.98-5.18 122.35-1.17 113.42 4.59 111.32-1.17Q110.39-0.98 109.45-0.88 108.51-0.78 107.56-0.78L107.56-0.78Q105.21-0.78 103.07-1.37 100.92-1.95 99.04-3.02 97.16-4.08 95.62-5.59 94.08-7.1 92.97-8.96 91.86-10.82 91.26-12.98 90.66-15.14 90.66-17.48L90.66-17.48Q90.66-19.8 91.24-21.98 91.81-24.17 92.87-26.1 93.94-28.03 95.44-29.63 96.94-31.23 98.79-32.39 100.65-33.54 102.8-34.18 104.95-34.81 107.31-34.81L107.31-34.81Q111.1-34.81 114.26-33.67 117.42-32.52 119.69-30.37 121.96-28.22 123.23-25.13 124.5-22.05 124.5-18.16ZM112.64-17.48L112.64-17.48Q112.64-18.6 112.31-19.67 111.98-20.73 111.34-21.55 110.71-22.36 109.76-22.85 108.8-23.34 107.56-23.34L107.56-23.34Q106.34-23.34 105.36-22.91 104.38-22.49 103.69-21.73 102.99-20.97 102.61-19.95 102.24-18.92 102.24-17.72L102.24-17.72Q102.24-16.6 102.57-15.52 102.9-14.43 103.53-13.56 104.16-12.7 105.12-12.16 106.07-11.62 107.31-11.62L107.31-11.62Q108.51-11.62 109.5-12.1 110.49-12.57 111.18-13.38 111.88-14.18 112.26-15.25 112.64-16.31 112.64-17.48ZM155.43-27.15L155.43-27.15Q155.43-25.34 155.26-23.17 155.09-21 154.7-18.68 154.31-16.36 153.69-13.98 153.06-11.6 152.14-9.4 151.21-7.2 149.98-5.29 148.74-3.37 147.14-1.94 145.54-0.51 143.57 0.31 141.59 1.12 139.17 1.12L139.17 1.12Q136.34 1.12 134.25 0.21 132.17-0.71 130.68-2.26 129.19-3.81 128.23-5.87 127.28-7.93 126.75-10.24 126.21-12.55 126-14.95 125.79-17.36 125.79-19.58L125.79-19.58Q125.79-23 126.13-26.4 126.48-29.81 127.11-33.2L127.11-33.2 138.54-32.76Q137.88-28.93 137.4-25.06 136.93-21.19 136.93-17.29L136.93-17.29Q136.93-16.87 136.96-16.05 137-15.23 137.1-14.22 137.19-13.21 137.38-12.15 137.56-11.08 137.88-10.21 138.2-9.33 138.65-8.76 139.1-8.2 139.71-8.2L139.71-8.2Q140.42-8.2 140.98-8.87 141.54-9.55 141.97-10.67 142.39-11.79 142.71-13.26 143.03-14.72 143.25-16.31 143.47-17.9 143.6-19.48 143.74-21.07 143.82-22.44 143.91-23.8 143.93-24.85 143.96-25.9 143.96-26.42L143.96-26.42Q143.96-28.32 143.9-30.21 143.84-32.1 143.71-33.98L143.71-33.98 155.14-33.98Q155.43-30.62 155.43-27.15ZM157.99-35.21L180.5-35.21Q180.36-32.91 180.23-30.66 180.11-28.42 179.92-26.12L179.92-26.12 169.57-25.59 169.32-22.51 176.6-22.51 176.06-14.94 168.74-14.7 168.49-11.13 174.55-11.13 178.84-11.13Q178.7-8.45 178.54-5.8 178.38-3.15 178.26-0.49L178.26-0.49 157.21 0 157.99-35.21ZM209.94-23.54L209.94-23.54Q209.94-21.63 209.61-20.08 209.28-18.53 208.58-17.24 207.87-15.94 206.75-14.84 205.62-13.75 204.04-12.74L204.04-12.74 209.85-2.39 198.86-0.24 195.1-10.64 192.07-10.55 191.63-0.39 181.13-0.39Q181.26-5.96 181.37-11.47 181.48-16.99 181.62-22.56L181.62-22.56Q181.67-25.37 181.72-28.13 181.77-30.88 181.92-33.69L181.92-33.69Q183.63-34.33 185.29-34.74 186.95-35.16 188.62-35.39 190.29-35.62 192.01-35.71 193.73-35.79 195.54-35.79L195.54-35.79Q198.32-35.79 200.92-35.02 203.52-34.25 205.52-32.71 207.53-31.18 208.73-28.88 209.94-26.59 209.94-23.54ZM199.01-22.75L199.01-22.75Q199.01-23.78 198.73-24.63 198.44-25.49 197.9-26.11 197.35-26.73 196.53-27.09 195.71-27.44 194.61-27.44L194.61-27.44Q194.12-27.44 193.66-27.38 193.2-27.32 192.76-27.2L192.76-27.2 192.37-18.12 192.95-18.12Q194-18.12 195.09-18.38 196.17-18.65 197.04-19.21 197.91-19.78 198.46-20.65 199.01-21.53 199.01-22.75ZM230.2-33.89L241.92-33.06 228.5-14.31 227.86 0.98 216.29 0.98 216.58-14.21 209.6-32.32 222.05-33.89 224-23.34 230.2-33.89Z" opacity="1" transform="matrix(1,0,0,1,0,0)" fill="#ffffff" class="undefined-text-0" data-fill-palette-color="primary" id="text-0"></path></svg></g></svg></g></svg></g></svg></g><g><svg viewBox="0 0 152.42504481092203 172.1622064173703" height="172.1622064173703" width="152.42504481092203"><g><svg xmlns="http://www.w3.org/2000/svg" data-name="Glyph Icon" viewBox="7.210000038146973 4 49.58000183105469 56" x="0" y="0" height="172.1622064173703" width="152.42504481092203" class="icon-icon-0" data-fill-palette-color="accent" id="icon-0"><path d="M49.13 20.84l-16-9.26V4L55.7 17.05ZM32 50.52L16 41.26V22.74l16-9.26 16 9.26V41.26ZM30.91 11.58l-16 9.26L8.3 17.05 30.91 4ZM13.77 22.74V41.26L7.21 45.05V19Zm1.1 20.42l16 9.26V60L8.3 47Zm18.22 9.26l16-9.26L55.7 47 33.09 60ZM50.23 41.26V22.74L56.79 19v26.1Z" fill="#ffffff" data-fill-palette-color="accent"></path></svg></g></svg></g></svg></g><defs></defs></svg><rect width="395.52" height="120.84696709429609" fill="none" stroke="none" visibility="hidden"></rect></g></svg></g></svg>